<svg width="79" height="109" viewBox="0 0 79 109" fill="none" xmlns="http://www.w3.org/2000/svg">
<path d="M44.4091 9.83301C45.2961 9.833 46.1665 10.0729 46.9282 10.5273C47.6899 10.9818 48.3145 11.6338 48.7358 12.4143L49.9305 14.6268C50.3518 15.4073 50.9764 16.0593 51.7381 16.5137C52.4998 16.9681 53.3703 17.208 54.2572 17.208H59.1665C60.4705 17.208 61.7211 17.726 62.6431 18.6481C63.5652 19.5701 64.0832 20.8207 64.0832 22.1247V44.2497C64.0832 45.5537 63.5652 46.8042 62.6431 47.7263C61.7211 48.6483 60.4705 49.1663 59.1665 49.1663H19.8332C18.5292 49.1663 17.2786 48.6483 16.3566 47.7263C15.4345 46.8042 14.9165 45.5537 14.9165 44.2497V22.1247C14.9165 20.8207 15.4345 19.5701 16.3566 18.6481C17.2786 17.726 18.5292 17.208 19.8332 17.208H24.7425C25.6285 17.2081 26.4981 16.9687 27.2593 16.5152C28.0204 16.0617 28.6449 15.4109 29.0667 14.6317L30.2688 12.4093C30.6905 11.6301 31.315 10.9794 32.0762 10.5258C32.8374 10.0723 33.707 9.83296 34.593 9.83301H44.4091Z" stroke="#030213" stroke-width="1.66667" stroke-linecap="round" stroke-linejoin="round"/>
<path d="M39.5 39.333C43.5731 39.333 46.875 36.0311 46.875 31.958C46.875 27.8849 43.5731 24.583 39.5 24.583C35.4269 24.583 32.125 27.8849 32.125 31.958C32.125 36.0311 35.4269 39.333 39.5 39.333Z" stroke="#030213" stroke-width="1.66667" stroke-linecap="round" stroke-linejoin="round"/>
<path d="M25.5693 79.3125L27.2744 79.7432C26.917 81.1436 26.2725 82.2129 25.3408 82.9512C24.415 83.6836 23.2812 84.0498 21.9395 84.0498C20.5508 84.0498 19.4199 83.7686 18.5469 83.2061C17.6797 82.6377 17.0176 81.8174 16.5605 80.7451C16.1094 79.6729 15.8838 78.5215 15.8838 77.291C15.8838 75.9492 16.1387 74.7803 16.6484 73.7842C17.1641 72.7822 17.8936 72.0234 18.8369 71.5078C19.7861 70.9863 20.8291 70.7256 21.9658 70.7256C23.2549 70.7256 24.3389 71.0537 25.2178 71.71C26.0967 72.3662 26.709 73.2891 27.0547 74.4785L25.376 74.874C25.0771 73.9365 24.6436 73.2539 24.0752 72.8262C23.5068 72.3984 22.792 72.1846 21.9307 72.1846C20.9404 72.1846 20.1113 72.4219 19.4434 72.8965C18.7812 73.3711 18.3154 74.0098 18.0459 74.8125C17.7764 75.6094 17.6416 76.4326 17.6416 77.2822C17.6416 78.3779 17.7998 79.3359 18.1162 80.1562C18.4385 80.9707 18.9365 81.5801 19.6104 81.9844C20.2842 82.3887 21.0137 82.5908 21.7988 82.5908C22.7539 82.5908 23.5625 82.3154 24.2246 81.7646C24.8867 81.2139 25.335 80.3965 25.5693 79.3125ZM38.5771 79.3125L40.2822 79.7432C39.9248 81.1436 39.2803 82.2129 38.3486 82.9512C37.4229 83.6836 36.2891 84.0498 34.9473 84.0498C33.5586 84.0498 32.4277 83.7686 31.5547 83.2061C30.6875 82.6377 30.0254 81.8174 29.5684 80.7451C29.1172 79.6729 28.8916 78.5215 28.8916 77.291C28.8916 75.9492 29.1465 74.7803 29.6562 73.7842C30.1719 72.7822 30.9014 72.0234 31.8447 71.5078C32.7939 70.9863 33.8369 70.7256 34.9736 70.7256C36.2627 70.7256 37.3467 71.0537 38.2256 71.71C39.1045 72.3662 39.7168 73.2891 40.0625 74.4785L38.3838 74.874C38.085 73.9365 37.6514 73.2539 37.083 72.8262C36.5146 72.3984 35.7998 72.1846 34.9385 72.1846C33.9482 72.1846 33.1191 72.4219 32.4512 72.8965C31.7891 73.3711 31.3232 74.0098 31.0537 74.8125C30.7842 75.6094 30.6494 76.4326 30.6494 77.2822C30.6494 78.3779 30.8076 79.3359 31.124 80.1562C31.4463 80.9707 31.9443 81.5801 32.6182 81.9844C33.292 82.3887 34.0215 82.5908 34.8066 82.5908C35.7617 82.5908 36.5703 82.3154 37.2324 81.7646C37.8945 81.2139 38.3428 80.3965 38.5771 79.3125ZM45.6699 83.8301V72.4658H41.4248V70.9453H51.6377V72.4658H47.375V83.8301H45.6699ZM57.0781 83.8301L52.0859 70.9453H53.9316L57.2803 80.3057C57.5498 81.0557 57.7754 81.7588 57.957 82.415C58.1562 81.7119 58.3877 81.0088 58.6514 80.3057L62.1318 70.9453H63.8721L58.8271 83.8301H57.0781ZM11.0322 100.312L12.7373 100.743C12.3799 102.144 11.7354 103.213 10.8037 103.951C9.87793 104.684 8.74414 105.05 7.40234 105.05C6.01367 105.05 4.88281 104.769 4.00977 104.206C3.14258 103.638 2.48047 102.817 2.02344 101.745C1.57227 100.673 1.34668 99.5215 1.34668 98.291C1.34668 96.9492 1.60156 95.7803 2.11133 94.7842C2.62695 93.7822 3.35645 93.0234 4.2998 92.5078C5.24902 91.9863 6.29199 91.7256 7.42871 91.7256C8.71777 91.7256 9.80176 92.0537 10.6807 92.71C11.5596 93.3662 12.1719 94.2891 12.5176 95.4785L10.8389 95.874C10.54 94.9365 10.1064 94.2539 9.53809 93.8262C8.96973 93.3984 8.25488 93.1846 7.39355 93.1846C6.40332 93.1846 5.57422 93.4219 4.90625 93.8965C4.24414 94.3711 3.77832 95.0098 3.50879 95.8125C3.23926 96.6094 3.10449 97.4326 3.10449 98.2822C3.10449 99.3779 3.2627 100.336 3.5791 101.156C3.90137 101.971 4.39941 102.58 5.07324 102.984C5.74707 103.389 6.47656 103.591 7.26172 103.591C8.2168 103.591 9.02539 103.315 9.6875 102.765C10.3496 102.214 10.7979 101.396 11.0322 100.312ZM14.0557 100.163C14.0557 98.4346 14.5361 97.1543 15.4971 96.3223C16.2998 95.6309 17.2783 95.2852 18.4326 95.2852C19.7158 95.2852 20.7646 95.707 21.5791 96.5508C22.3936 97.3887 22.8008 98.5488 22.8008 100.031C22.8008 101.232 22.6191 102.179 22.2559 102.87C21.8984 103.556 21.374 104.089 20.6826 104.47C19.9971 104.851 19.2471 105.041 18.4326 105.041C17.126 105.041 16.0684 104.622 15.2598 103.784C14.457 102.946 14.0557 101.739 14.0557 100.163ZM15.6816 100.163C15.6816 101.358 15.9424 102.255 16.4639 102.853C16.9854 103.444 17.6416 103.74 18.4326 103.74C19.2178 103.74 19.8711 103.441 20.3926 102.844C20.9141 102.246 21.1748 101.335 21.1748 100.11C21.1748 98.9561 20.9111 98.083 20.3838 97.4912C19.8623 96.8936 19.2119 96.5947 18.4326 96.5947C17.6416 96.5947 16.9854 96.8906 16.4639 97.4824C15.9424 98.0742 15.6816 98.9678 15.6816 100.163ZM27.2568 104.83L23.7061 95.4961H25.376L27.3799 101.086C27.5967 101.689 27.7959 102.316 27.9775 102.967C28.1182 102.475 28.3145 101.883 28.5664 101.191L30.6406 95.4961H32.2666L28.7334 104.83H27.2568ZM40.0537 101.824L41.6885 102.026C41.4307 102.981 40.9531 103.723 40.2559 104.25C39.5586 104.777 38.668 105.041 37.584 105.041C36.2188 105.041 35.1348 104.622 34.332 103.784C33.5352 102.94 33.1367 101.76 33.1367 100.242C33.1367 98.6719 33.541 97.4531 34.3496 96.5859C35.1582 95.7188 36.207 95.2852 37.4961 95.2852C38.7441 95.2852 39.7637 95.71 40.5547 96.5596C41.3457 97.4092 41.7412 98.6045 41.7412 100.146C41.7412 100.239 41.7383 100.38 41.7324 100.567H34.7715C34.8301 101.593 35.1201 102.378 35.6416 102.923C36.1631 103.468 36.8135 103.74 37.5928 103.74C38.1729 103.74 38.668 103.588 39.0781 103.283C39.4883 102.979 39.8135 102.492 40.0537 101.824ZM34.8594 99.2666H40.0713C40.001 98.4814 39.8018 97.8926 39.4736 97.5C38.9697 96.8906 38.3164 96.5859 37.5137 96.5859C36.7871 96.5859 36.1748 96.8291 35.6768 97.3154C35.1846 97.8018 34.9121 98.4521 34.8594 99.2666ZM43.666 104.83V95.4961H45.0898V96.9111C45.4531 96.249 45.7871 95.8125 46.0918 95.6016C46.4023 95.3906 46.7422 95.2852 47.1113 95.2852C47.6445 95.2852 48.1865 95.4551 48.7373 95.7949L48.1924 97.2627C47.8057 97.0342 47.4189 96.9199 47.0322 96.9199C46.6865 96.9199 46.376 97.0254 46.1006 97.2363C45.8252 97.4414 45.6289 97.7285 45.5117 98.0977C45.3359 98.6602 45.248 99.2754 45.248 99.9434V104.83H43.666ZM55.7686 103.679C55.1826 104.177 54.6172 104.528 54.0723 104.733C53.5332 104.938 52.9531 105.041 52.332 105.041C51.3066 105.041 50.5186 104.792 49.9678 104.294C49.417 103.79 49.1416 103.148 49.1416 102.369C49.1416 101.912 49.2441 101.496 49.4492 101.121C49.6602 100.74 49.9326 100.436 50.2666 100.207C50.6064 99.9785 50.9873 99.8057 51.4092 99.6885C51.7197 99.6064 52.1885 99.5273 52.8154 99.4512C54.0928 99.2988 55.0332 99.1172 55.6367 98.9062C55.6426 98.6895 55.6455 98.5518 55.6455 98.4932C55.6455 97.8486 55.4961 97.3945 55.1973 97.1309C54.793 96.7734 54.1924 96.5947 53.3955 96.5947C52.6514 96.5947 52.1006 96.7266 51.7432 96.9902C51.3916 97.248 51.1309 97.708 50.9609 98.3701L49.4141 98.1592C49.5547 97.4971 49.7861 96.9639 50.1084 96.5596C50.4307 96.1494 50.8965 95.8359 51.5059 95.6191C52.1152 95.3965 52.8213 95.2852 53.624 95.2852C54.4209 95.2852 55.0684 95.3789 55.5664 95.5664C56.0645 95.7539 56.4307 95.9912 56.665 96.2783C56.8994 96.5596 57.0635 96.917 57.1572 97.3506C57.21 97.6201 57.2363 98.1064 57.2363 98.8096V100.919C57.2363 102.39 57.2686 103.321 57.333 103.714C57.4033 104.101 57.5381 104.473 57.7373 104.83H56.085C55.9209 104.502 55.8154 104.118 55.7686 103.679ZM55.6367 100.146C55.0625 100.38 54.2012 100.579 53.0527 100.743C52.4023 100.837 51.9424 100.942 51.6729 101.06C51.4033 101.177 51.1953 101.35 51.0488 101.578C50.9023 101.801 50.8291 102.05 50.8291 102.325C50.8291 102.747 50.9873 103.099 51.3037 103.38C51.626 103.661 52.0947 103.802 52.71 103.802C53.3193 103.802 53.8613 103.67 54.3359 103.406C54.8105 103.137 55.1592 102.771 55.3818 102.308C55.5518 101.95 55.6367 101.423 55.6367 100.726V100.146ZM59.4072 105.604L60.9453 105.832C61.0098 106.307 61.1885 106.652 61.4814 106.869C61.874 107.162 62.4102 107.309 63.0898 107.309C63.8223 107.309 64.3877 107.162 64.7861 106.869C65.1846 106.576 65.4541 106.166 65.5947 105.639C65.6768 105.316 65.7148 104.64 65.709 103.608C65.0176 104.423 64.1562 104.83 63.125 104.83C61.8418 104.83 60.8486 104.367 60.1455 103.441C59.4424 102.516 59.0908 101.405 59.0908 100.11C59.0908 99.2197 59.252 98.3994 59.5742 97.6494C59.8965 96.8936 60.3623 96.3105 60.9717 95.9004C61.5869 95.4902 62.3076 95.2852 63.1338 95.2852C64.2354 95.2852 65.1436 95.7305 65.8584 96.6211V95.4961H67.3174V103.564C67.3174 105.018 67.168 106.046 66.8691 106.649C66.5762 107.259 66.1074 107.739 65.4629 108.091C64.8242 108.442 64.0361 108.618 63.0986 108.618C61.9854 108.618 61.0859 108.366 60.4004 107.862C59.7148 107.364 59.3838 106.611 59.4072 105.604ZM60.7168 99.9961C60.7168 101.221 60.96 102.114 61.4463 102.677C61.9326 103.239 62.542 103.521 63.2744 103.521C64.001 103.521 64.6104 103.242 65.1025 102.686C65.5947 102.123 65.8408 101.244 65.8408 100.049C65.8408 98.9062 65.5859 98.0449 65.0762 97.4648C64.5723 96.8848 63.9629 96.5947 63.248 96.5947C62.5449 96.5947 61.9473 96.8818 61.4551 97.4561C60.9629 98.0244 60.7168 98.8711 60.7168 99.9961ZM76.1064 101.824L77.7412 102.026C77.4834 102.981 77.0059 103.723 76.3086 104.25C75.6113 104.777 74.7207 105.041 73.6367 105.041C72.2715 105.041 71.1875 104.622 70.3848 103.784C69.5879 102.94 69.1895 101.76 69.1895 100.242C69.1895 98.6719 69.5938 97.4531 70.4023 96.5859C71.2109 95.7188 72.2598 95.2852 73.5488 95.2852C74.7969 95.2852 75.8164 95.71 76.6074 96.5596C77.3984 97.4092 77.7939 98.6045 77.7939 100.146C77.7939 100.239 77.791 100.38 77.7852 100.567H70.8242C70.8828 101.593 71.1729 102.378 71.6943 102.923C72.2158 103.468 72.8662 103.74 73.6455 103.74C74.2256 103.74 74.7207 103.588 75.1309 103.283C75.541 102.979 75.8662 102.492 76.1064 101.824ZM70.9121 99.2666H76.124C76.0537 98.4814 75.8545 97.8926 75.5264 97.5C75.0225 96.8906 74.3691 96.5859 73.5664 96.5859C72.8398 96.5859 72.2275 96.8291 71.7295 97.3154C71.2373 97.8018 70.9648 98.4521 70.9121 99.2666Z" fill="black"/>
</svg>
