<svg width="79" height="79" viewBox="0 0 79 79" fill="none" xmlns="http://www.w3.org/2000/svg">
<path d="M52.5171 52.5168L59.0817 59.0814L72.2109 45.9521" stroke="#155DFC" stroke-width="2.66667" stroke-linecap="round" stroke-linejoin="round"/>
<path d="M68.9281 32.823V26.2584C68.927 25.1072 68.6231 23.9766 68.047 22.9799C67.4709 21.9832 66.6428 21.1556 65.6458 20.58L42.6697 7.45078C41.6718 6.87461 40.5397 6.57129 39.3874 6.57129C38.2351 6.57129 37.1031 6.87461 36.1051 7.45078L13.129 20.58C12.132 21.1556 11.304 21.9832 10.7279 22.9799C10.1517 23.9766 9.84786 25.1072 9.84668 26.2584V52.5168C9.84786 53.668 10.1517 54.7986 10.7279 55.7953C11.304 56.792 12.132 57.6196 13.129 58.1952L36.1051 71.3244C37.1031 71.9006 38.2351 72.2039 39.3874 72.2039C40.5397 72.2039 41.6718 71.9006 42.6697 71.3244L49.2343 67.5826" stroke="#155DFC" stroke-width="2.66667" stroke-linecap="round" stroke-linejoin="round"/>
<path d="M24.6172 14.0156L54.1579 30.9195" stroke="#155DFC" stroke-width="2.66667" stroke-linecap="round" stroke-linejoin="round"/>
<path d="M10.7988 22.9766L39.3877 39.3881L67.9766 22.9766" stroke="#155DFC" stroke-width="2.66667" stroke-linecap="round" stroke-linejoin="round"/>
<path d="M39.3877 72.2107V39.3877" stroke="#155DFC" stroke-width="2.66667" stroke-linecap="round" stroke-linejoin="round"/>
</svg>
