<svg width="93" height="93" viewBox="0 0 93 93" fill="none" xmlns="http://www.w3.org/2000/svg">
<path d="M77.163 50.1562C77.163 69.4469 63.6594 79.0923 47.6096 84.6866C46.7691 84.9714 45.8562 84.9578 45.0246 84.648C28.9361 79.0923 15.4326 69.4469 15.4326 50.1562V23.1492C15.4326 22.1259 15.8391 21.1446 16.5626 20.421C17.2862 19.6975 18.2675 19.291 19.2908 19.291C27.0071 19.291 36.6524 14.6612 43.3656 8.79686C44.183 8.09853 45.2227 7.71484 46.2978 7.71484C47.3728 7.71484 48.4126 8.09853 49.23 8.79686C55.9817 14.6998 65.5885 19.291 73.3048 19.291C74.3281 19.291 75.3094 19.6975 76.0329 20.421C76.7565 21.1446 77.163 22.1259 77.163 23.1492V50.1562Z" stroke="#BE395A" stroke-width="2.66667" stroke-linecap="round" stroke-linejoin="round"/>
<path d="M34.7231 46.2973L42.4394 54.0136L57.872 38.5811" stroke="#AE336B" stroke-width="2.66667" stroke-linecap="round" stroke-linejoin="round"/>
</svg>
