<svg width="77" height="77" viewBox="0 0 77 77" fill="none" xmlns="http://www.w3.org/2000/svg">
<path d="M44.3401 57.0088V19.0032C44.3401 17.3233 43.6727 15.7121 42.4848 14.5242C41.2969 13.3363 39.6858 12.6689 38.0058 12.6689H12.6687C10.9888 12.6689 9.37764 13.3363 8.18974 14.5242C7.00183 15.7121 6.33447 17.3233 6.33447 19.0032V53.8417C6.33447 54.6817 6.66815 55.4873 7.2621 56.0812C7.85606 56.6752 8.66163 57.0088 9.50161 57.0088H15.8359" stroke="#743496" stroke-width="2.66667" stroke-linecap="round" stroke-linejoin="round"/>
<path d="M47.5072 57.0088H28.5044" stroke="#743496" stroke-width="2.66667" stroke-linecap="round" stroke-linejoin="round"/>
<path d="M60.1755 57.0083H66.5098C67.3498 57.0083 68.1553 56.6746 68.7493 56.0806C69.3432 55.4867 69.6769 54.6811 69.6769 53.8411V42.2811C69.6756 41.5623 69.4299 40.8654 68.9802 40.3048L57.9585 26.5278C57.6623 26.1568 57.2865 25.8572 56.8589 25.6511C56.4313 25.445 55.9629 25.3376 55.4882 25.3369H44.3398" stroke="#743496" stroke-width="2.66667" stroke-linecap="round" stroke-linejoin="round"/>
<path d="M53.8411 63.3424C57.3394 63.3424 60.1754 60.5064 60.1754 57.0081C60.1754 53.5098 57.3394 50.6738 53.8411 50.6738C50.3428 50.6738 47.5068 53.5098 47.5068 57.0081C47.5068 60.5064 50.3428 63.3424 53.8411 63.3424Z" stroke="#743496" stroke-width="2.66667" stroke-linecap="round" stroke-linejoin="round"/>
<path d="M22.1697 63.3424C25.668 63.3424 28.504 60.5064 28.504 57.0081C28.504 53.5098 25.668 50.6738 22.1697 50.6738C18.6714 50.6738 15.8354 53.5098 15.8354 57.0081C15.8354 60.5064 18.6714 63.3424 22.1697 63.3424Z" stroke="#743496" stroke-width="2.66667" stroke-linecap="round" stroke-linejoin="round"/>
</svg>
